<?xml version="1.0" standalone="no"?>
<!DOCTYPE svg PUBLIC "-//W3C//DTD SVG 20010904//EN"
 "http://www.w3.org/TR/2001/REC-SVG-20010904/DTD/svg10.dtd">
<svg version="1.0" xmlns="http://www.w3.org/2000/svg"
 width="512.000000pt" height="512.000000pt" viewBox="0 0 512.000000 512.000000"
 preserveAspectRatio="xMidYMid meet">

<g transform="translate(0.000000,512.000000) scale(0.100000,-0.100000)"
fill="#000000" stroke="none">
<path d="M2525 5109 c-24 -12 -34 -27 -826 -1194 -408 -602 -625 -930 -627
-950 -2 -20 3 -39 15 -53 26 -33 1438 -772 1474 -772 32 0 1104 559 1125 587
19 26 17 77 -5 104 -40 50 -58 42 -585 -236 -270 -142 -502 -263 -517 -268
-24 -9 -88 22 -663 324 -350 184 -635 339 -634 345 5 18 1182 1753 1191 1754
4 0 7 -454 7 -1009 0 -975 1 -1010 19 -1032 27 -33 95 -33 122 0 18 22 19 57
19 1032 0 555 3 1009 8 1009 4 -1 282 -407 617 -903 336 -496 623 -916 639
-934 22 -27 36 -33 66 -33 48 0 84 38 78 85 -2 20 -246 388 -702 1060 -385
567 -706 1040 -715 1052 -17 23 -53 43 -74 42 -7 0 -21 -5 -32 -10z"/>
<path d="M1114 2499 c-24 -12 -44 -49 -44 -79 0 -10 10 -30 23 -44 22 -25
1440 -776 1465 -776 31 0 1442 744 1470 776 12 14 22 34 22 44 0 54 -54 100
-100 85 -12 -4 -329 -169 -706 -367 l-684 -359 -687 361 c-378 199 -698 363
-713 365 -14 3 -35 0 -46 -6z"/>
<path d="M1142 1973 c-16 -6 -42 -56 -42 -81 0 -30 1395 -1864 1431 -1881 25
-13 33 -13 58 0 35 16 1416 1829 1426 1871 8 30 -16 82 -40 92 -9 3 -27 6 -39
6 -28 0 -1426 -743 -1444 -767 -9 -12 -12 -81 -12 -260 l0 -244 25 -24 c15
-16 36 -25 55 -25 19 0 40 9 55 25 25 24 25 25 25 224 0 197 0 201 23 215 12
8 231 125 487 261 256 136 469 250 474 253 5 3 5 -1 1 -9 -28 -46 -1058 -1394
-1065 -1394 -8 0 -1070 1392 -1070 1402 0 2 3 2 8 0 4 -2 136 -73 294 -157
304 -161 314 -164 361 -123 22 21 22 85 0 111 -28 31 -941 512 -972 511 -14 0
-32 -3 -39 -6z"/>
</g>
</svg>
