<?xml version="1.0" standalone="no"?>
<!DOCTYPE svg PUBLIC "-//W3C//DTD SVG 20010904//EN"
 "http://www.w3.org/TR/2001/REC-SVG-20010904/DTD/svg10.dtd">
<svg version="1.0" xmlns="http://www.w3.org/2000/svg"
 width="548.000000pt" height="339.000000pt" viewBox="0 0 548.000000 339.000000"
 preserveAspectRatio="xMidYMid meet">

<g transform="translate(0.000000,339.000000) scale(0.100000,-0.100000)"
fill="#000000" stroke="none">
<path d="M2320 1947 c-46 -15 -106 -77 -119 -124 -17 -59 -13 -95 14 -149 47
-95 148 -131 243 -87 17 8 32 19 32 25 0 5 -53 70 -117 144 -124 145 -121 137
-59 171 36 19 112 12 151 -13 16 -10 25 -12 25 -5 0 16 -78 51 -110 50 -14 -1
-41 -6 -60 -12z m38 -197 c99 -116 118 -145 97 -145 -9 0 -69 65 -208 222 -17
20 -17 43 2 43 4 0 53 -54 109 -120z m-24 -45 c105 -120 108 -134 20 -120 -52
7 -110 53 -130 102 -21 50 -16 160 6 136 4 -4 51 -57 104 -118z"/>
<path d="M3892 1763 l-2 -193 35 0 35 0 0 190 c0 117 -4 190 -10 190 -6 0 -11
-72 -12 -182 -3 -155 -5 -183 -18 -183 -13 0 -16 30 -20 185 l-6 185 -2 -192z"/>
<path d="M3490 1755 c0 -99 -4 -165 -10 -165 -22 0 -30 46 -31 172 -1 73 -3
124 -6 113 -3 -11 -11 -25 -19 -31 -13 -10 -13 -12 1 -18 12 -4 15 -26 15
-114 0 -93 3 -111 18 -125 19 -18 48 -22 76 -11 23 9 20 26 -4 19 -19 -6 -20
-2 -20 114 0 116 1 120 23 124 l22 4 -22 2 c-20 1 -23 7 -23 41 0 22 -4 40
-10 40 -6 0 -10 -62 -10 -165z"/>
<path d="M4120 1754 c0 -147 -2 -165 -15 -154 -12 10 -15 40 -15 151 0 86 -4
139 -10 139 -5 0 -10 -11 -10 -24 0 -13 -6 -27 -12 -29 -10 -4 -10 -6 0 -6 9
-1 12 -28 12 -102 0 -95 9 -135 34 -151 19 -13 63 -9 77 8 11 13 9 14 -14 9
l-27 -7 0 121 0 121 28 1 27 1 -25 7 c-20 5 -26 14 -28 44 -2 20 -7 37 -13 37
-5 0 -9 -69 -9 -166z"/>
<path d="M2650 1839 c-38 -15 -45 -35 -50 -149 -4 -84 -8 -105 -20 -105 -12 0
-16 24 -20 130 l-6 130 -2 -138 -2 -138 33 3 32 3 3 110 c2 84 7 113 19 127
24 27 68 23 92 -9 22 -28 36 -27 25 1 -6 16 -54 47 -71 45 -4 0 -19 -5 -33
-10z"/>
<path d="M2786 1841 c-3 -5 20 -67 52 -138 l58 -128 -24 -53 c-13 -29 -21 -56
-18 -59 8 -8 2 -20 94 181 46 98 81 184 78 190 -2 6 -23 -31 -47 -82 l-44 -94
-45 94 c-38 79 -49 93 -72 96 -14 2 -29 -1 -32 -7z m93 -105 c31 -69 41 -101
35 -118 -6 -20 -11 -13 -41 52 -75 162 -74 160 -55 160 12 0 30 -28 61 -94z"/>
<path d="M3080 1655 l0 -195 35 0 35 0 0 61 0 61 28 -8 c95 -27 182 39 182
137 0 44 -33 96 -78 122 -29 17 -40 19 -80 9 -29 -6 -48 -7 -50 -1 -2 5 -8 7
-13 3 -5 -3 -9 -88 -9 -190 0 -157 -2 -184 -15 -184 -13 0 -15 28 -15 190 0
120 -4 190 -10 190 -6 0 -10 -72 -10 -195z m189 166 c17 -11 7 -28 -69 -111
l-50 -55 0 74 c0 59 4 77 18 87 20 15 80 18 101 5z m-21 -128 c-75 -88 -98
-106 -98 -80 0 24 151 190 163 178 7 -7 -13 -38 -65 -98z m92 11 c0 -40 -5
-51 -39 -85 -38 -38 -71 -48 -99 -30 -11 6 3 27 53 85 36 42 71 76 76 76 5 0
9 -21 9 -46z"/>
<path d="M3615 1690 c-4 -6 30 -10 95 -10 65 0 99 4 95 10 -3 6 -46 10 -95 10
-49 0 -92 -4 -95 -10z"/>
</g>
</svg>
